<?xml version="1.0" encoding="utf-8"?>
<!-- Generator: Adobe Illustrator 16.0.0, SVG Export Plug-In . SVG Version: 6.00 Build 0)  -->
<!DOCTYPE svg PUBLIC "-//W3C//DTD SVG 1.1//EN" "http://www.w3.org/Graphics/SVG/1.1/DTD/svg11.dtd">
<svg version="1.1" id="Layer_1" xmlns="http://www.w3.org/2000/svg" xmlns:xlink="http://www.w3.org/1999/xlink" x="0px" y="0px"
	 width="4311.326px" height="799.523px" viewBox="0 0 4311.326 799.523" enable-background="new 0 0 4311.326 799.523"
	 xml:space="preserve">
<g>
	<path fill="#FFFFFF" d="M495.303,494.262c-2.48-2.32-4.87-4.75-7.17-7.26c0.79-0.57,1.59-1.12,2.4-1.67
		C492.233,488.242,493.823,491.212,495.303,494.262z"/>
</g>
<g>
	<path fill="#FFFFFF" d="M495.303,494.262c-2.48-2.32-4.87-4.75-7.17-7.26c0.79-0.57,1.59-1.12,2.4-1.67
		C492.233,488.242,493.823,491.212,495.303,494.262z"/>
	<path fill="#FFFFFF" d="M452.943,399.942c-0.11-0.06-0.23-0.12-0.34-0.17c0.11-0.07,0.22-0.12,0.33-0.17
		C452.933,399.712,452.943,399.832,452.943,399.942z"/>
	<path fill="#FFFFFF" d="M495.303,494.262c-2.48-2.32-4.87-4.75-7.17-7.26c0.79-0.57,1.59-1.12,2.4-1.67
		C492.233,488.242,493.823,491.212,495.303,494.262z"/>
</g>
<g>
	<path fill="#FFFFFF" d="M495.303,494.262c-2.48-2.32-4.87-4.75-7.17-7.26c0.79-0.57,1.59-1.12,2.4-1.67
		C492.233,488.242,493.823,491.212,495.303,494.262z"/>
	<path fill="#FFFFFF" d="M495.303,494.262c-2.48-2.32-4.87-4.75-7.17-7.26c0.79-0.57,1.59-1.12,2.4-1.67
		C492.233,488.242,493.823,491.212,495.303,494.262z"/>
</g>
<g>
	<path fill="#FFFFFF" d="M296.093,399.762c-49.27,25.22-84.78,73.51-92.27,130.63c-10.2,2.48-20.86,3.79-31.83,3.79
		c-74.23,0-134.41-60.18-134.41-134.42c0-74.23,60.18-134.41,134.41-134.41c10.97,0,21.63,1.31,31.83,3.79
		C211.313,326.252,246.823,374.542,296.093,399.762z"/>
	<path fill="#FFFFFF" d="M721.723,171.992c0,18.41-3.7,35.96-10.4,51.94c-5.28,12.6-12.43,24.22-21.1,34.52
		c-28.7-21.46-64.32-34.17-102.91-34.17c-14.42,0-28.43,1.78-41.82,5.12c-5.14-51.96-33.41-97.12-74.36-125.05
		c23.3-39.94,66.61-66.77,116.18-66.77c55.82,0,103.7,34.03,124.01,82.48C718.023,136.042,721.723,153.582,721.723,171.992z"/>
	<path fill="#FFFFFF" d="M508.763,552.972c0,43.22-20.4,81.68-52.1,106.271c-10.18,7.89-21.52,14.359-33.72,19.09
		c-15.07,5.85-31.46,9.06-48.6,9.06c-72.62,0-131.8-57.6-134.32-129.62c-0.06-1.59-0.09-3.189-0.09-4.8
		c0-14.38,2.26-28.229,6.43-41.22h0.01c9.4-29.23,28.54-54.09,53.6-70.76c12.8-8.53,27.16-14.91,42.55-18.65
		c10.2-2.48,20.86-3.79,31.82-3.79c15.22,0,29.85,2.53,43.49,7.19c18.27,6.25,34.76,16.31,48.53,29.239v0.011
		c9.44,8.859,17.6,19.079,24.17,30.34c-0.81,0.55-1.61,1.1-2.4,1.67c2.3,2.51,4.69,4.939,7.17,7.26c4.15,8.53,7.42,17.57,9.69,26.99
		c2.19,9.029,3.46,18.41,3.72,28.05C508.743,550.521,508.763,551.742,508.763,552.972z"/>
	<path fill="#FFFFFF" d="M721.733,627.531c0,18.41-3.7,35.95-10.41,51.931c-20.31,48.45-68.19,82.479-124.01,82.479
		c-49.58,0-92.88-26.84-116.18-66.779c42.74-29.15,71.65-77.061,74.89-131.881c13.23,3.261,27.06,4.99,41.29,4.99
		c36.93,0,71.15-11.64,99.18-31.47c10.36,11.32,18.81,24.42,24.83,38.79C718.033,591.571,721.733,609.122,721.733,627.531z"/>
	<path fill="#FFFFFF" d="M721.723,396.271c0,18.41-3.7,35.96-10.4,51.94c-6.02,14.37-14.47,27.46-24.83,38.78
		c-8.9,9.729-19.21,18.14-30.61,24.909c-20.07,11.94-43.52,18.79-68.57,18.79c-15.23,0-29.86-2.529-43.5-7.199
		c-1.25-7.28-2.97-14.391-5.11-21.32c-3.74-12.13-8.79-23.68-14.98-34.5c-16.51-28.86-41.14-52.47-70.78-67.72v-0.01
		c0-0.11-0.01-0.23-0.01-0.34v-0.01c29.64-15.26,54.29-38.87,70.8-67.74c6.19-10.82,11.24-22.37,14.98-34.5
		c2.86-9.25,4.96-18.83,6.22-28.67c13.32-4.43,27.57-6.82,42.38-6.82c27.39,0,52.87,8.19,74.12,22.27
		c10.79,7.15,20.49,15.81,28.79,25.69c8.67,10.3,15.82,21.92,21.1,34.52C718.023,360.322,721.723,377.862,721.723,396.271z"/>
	<path fill="#FFFFFF" d="M508.763,246.552c0,10.93-1.3,21.55-3.77,31.72c-1.29,5.35-2.9,10.58-4.82,15.66
		c-2.65,7.06-5.89,13.83-9.64,20.26c-7.68,13.16-17.52,24.89-29.05,34.71c-13.01,11.09-28.17,19.74-44.76,25.25
		c-13.32,4.42-27.57,6.82-42.38,6.82c-10.96,0-21.62-1.31-31.82-3.79c-15.39-3.74-29.73-10.12-42.54-18.64h-0.01
		c-25.06-16.68-44.2-41.53-53.61-70.76c-4.18-12.99-6.44-26.85-6.44-41.23c0-1.61,0.03-3.22,0.09-4.81
		c2.53-72,61.71-129.6,134.33-129.6c17.14,0,33.53,3.21,48.6,9.05c12.2,4.74,23.54,11.2,33.72,19.1
		c30.89,23.96,51.05,61.08,52.06,102.95C508.753,244.342,508.763,245.442,508.763,246.552z"/>
</g>
<g>
	<path fill="#FFFFFF" d="M1577.451,708.339c-179.805,0-320.709-136.582-320.709-312.063c0-175.482,140.04-312.064,318.979-312.064
		c100.274,0,193.637,42.358,251.553,113.242l-87.309,80.394c-42.356-51.002-99.411-78.665-164.244-78.665
		c-108.919,0-190.179,84.716-190.179,197.094c0,112.378,83.853,197.958,193.636,197.958c85.58,0,153.008-51.867,167.702-126.208
		h-178.938v-108.92h312.93v38.036C1880.871,576.079,1752.068,708.339,1577.451,708.339z"/>
	<path fill="#FFFFFF" d="M1966.448,93.72h295.641c122.751,0,209.195,76.936,209.195,187.583c0,76.937-46.681,140.04-118.431,168.567
		l133.989,248.959h-140.039l-118.43-231.67h-136.582v231.67h-125.345L1966.448,93.72L1966.448,93.72z M2091.792,201.775V364.29
		h159.058c56.188,0,93.36-32.849,93.36-81.258c0-48.409-37.172-81.257-93.36-81.257H2091.792L2091.792,201.775z"/>
	<path fill="#FFFFFF" d="M2753.08,93.72h145.227l245.502,605.11h-135.717l-61.377-159.058H2696.89l-62.237,159.058H2504.12
		L2753.08,93.72z M2908.679,439.498l-85.58-223.027l-87.309,223.027H2908.679z"/>
	<path fill="#FFFFFF" d="M3194.813,93.72h303.418c119.295,0,203.145,78.664,203.145,190.177c0,108.055-85.578,186.72-203.145,186.72
		h-178.074V698.83h-125.344V93.72z M3320.156,201.775v165.108H3484.4c54.459,0,89.901-32.849,89.901-82.122
		c0-50.138-35.441-82.986-89.901-82.986H3320.156z"/>
	<path fill="#FFFFFF" d="M3783.503,93.72h303.42c119.293,0,203.144,78.664,203.144,190.177c0,108.055-85.578,186.72-203.144,186.72
		h-178.076V698.83h-125.344V93.72z M3908.847,201.775v165.108h164.244c54.461,0,89.903-32.849,89.903-82.122
		c0-50.138-35.442-82.986-89.903-82.986H3908.847z"/>
</g>
<polygon fill="#FFFFFF" points="1053.633,399.771 750.663,681.492 750.663,118.021 "/>
</svg>
