<?xml version="1.0" encoding="utf-8"?>
<!-- Generator: Adobe Illustrator 16.0.0, SVG Export Plug-In . SVG Version: 6.00 Build 0)  -->
<!DOCTYPE svg PUBLIC "-//W3C//DTD SVG 1.1//EN" "http://www.w3.org/Graphics/SVG/1.1/DTD/svg11.dtd">
<svg version="1.1" id="Layer_1" xmlns="http://www.w3.org/2000/svg" xmlns:xlink="http://www.w3.org/1999/xlink" x="0px" y="0px"
	 width="1092.163px" height="799.523px" viewBox="0 0 1092.163 799.523" enable-background="new 0 0 1092.163 799.523"
	 xml:space="preserve">
<g>
	<path fill="#FFFFFF" d="M495.303,494.262c-2.479-2.319-4.87-4.75-7.17-7.26c0.79-0.57,1.59-1.12,2.4-1.67
		C492.233,488.242,493.823,491.212,495.303,494.262z"/>
</g>
<g>
	<path fill="#FFFFFF" d="M495.303,494.262c-2.479-2.319-4.87-4.75-7.17-7.26c0.79-0.57,1.59-1.12,2.4-1.67
		C492.233,488.242,493.823,491.212,495.303,494.262z"/>
	<path fill="#FFFFFF" d="M452.943,399.942c-0.11-0.06-0.23-0.12-0.34-0.17c0.109-0.07,0.22-0.12,0.329-0.17
		C452.933,399.712,452.943,399.832,452.943,399.942z"/>
	<path fill="#FFFFFF" d="M495.303,494.262c-2.479-2.319-4.87-4.75-7.17-7.26c0.79-0.57,1.59-1.12,2.4-1.67
		C492.233,488.242,493.823,491.212,495.303,494.262z"/>
</g>
<g>
	<path fill="#FFFFFF" d="M495.303,494.262c-2.479-2.319-4.87-4.75-7.17-7.26c0.79-0.57,1.59-1.12,2.4-1.67
		C492.233,488.242,493.823,491.212,495.303,494.262z"/>
	<path fill="#FFFFFF" d="M495.303,494.262c-2.479-2.319-4.87-4.75-7.17-7.26c0.79-0.57,1.59-1.12,2.4-1.67
		C492.233,488.242,493.823,491.212,495.303,494.262z"/>
</g>
<g>
	<path fill="#FFFFFF" d="M296.093,399.762c-49.27,25.221-84.78,73.511-92.27,130.63c-10.2,2.48-20.86,3.79-31.83,3.79
		c-74.23,0-134.41-60.18-134.41-134.42c0-74.229,60.18-134.41,134.41-134.41c10.97,0,21.63,1.31,31.83,3.79
		C211.313,326.252,246.823,374.542,296.093,399.762z"/>
	<path fill="#FFFFFF" d="M721.723,171.992c0,18.41-3.699,35.96-10.399,51.94c-5.28,12.6-12.431,24.22-21.101,34.52
		c-28.699-21.46-64.319-34.17-102.91-34.17c-14.42,0-28.43,1.78-41.819,5.12c-5.141-51.96-33.41-97.12-74.36-125.05
		c23.3-39.94,66.61-66.77,116.18-66.77c55.82,0,103.7,34.03,124.011,82.48C718.023,136.042,721.723,153.582,721.723,171.992z"/>
	<path fill="#FFFFFF" d="M508.763,552.972c0,43.221-20.399,81.681-52.1,106.271c-10.18,7.89-21.521,14.358-33.72,19.09
		c-15.07,5.85-31.46,9.06-48.601,9.06c-72.62,0-131.8-57.6-134.32-129.619c-0.06-1.591-0.09-3.189-0.09-4.801
		c0-14.38,2.26-28.229,6.43-41.22h0.01c9.4-29.229,28.54-54.09,53.6-70.76c12.801-8.53,27.16-14.91,42.551-18.65
		c10.199-2.479,20.859-3.79,31.819-3.79c15.22,0,29.851,2.53,43.49,7.19c18.27,6.25,34.76,16.31,48.53,29.239v0.011
		c9.439,8.859,17.6,19.079,24.17,30.34c-0.811,0.55-1.61,1.1-2.4,1.67c2.3,2.51,4.69,4.939,7.17,7.26
		c4.15,8.53,7.42,17.57,9.69,26.99c2.189,9.029,3.46,18.41,3.72,28.05C508.743,550.521,508.763,551.742,508.763,552.972z"/>
	<path fill="#FFFFFF" d="M721.732,627.531c0,18.41-3.699,35.95-10.409,51.931c-20.311,48.45-68.19,82.479-124.011,82.479
		c-49.579,0-92.88-26.841-116.18-66.779c42.74-29.15,71.65-77.062,74.891-131.881c13.229,3.261,27.06,4.99,41.289,4.99
		c36.931,0,71.15-11.641,99.181-31.471c10.36,11.32,18.81,24.42,24.83,38.79C718.033,591.571,721.732,609.122,721.732,627.531z"/>
	<path fill="#FFFFFF" d="M721.723,396.271c0,18.411-3.699,35.96-10.399,51.94c-6.021,14.37-14.47,27.46-24.83,38.78
		c-8.9,9.729-19.21,18.14-30.61,24.909c-20.07,11.939-43.52,18.79-68.57,18.79c-15.229,0-29.859-2.529-43.5-7.199
		c-1.25-7.28-2.97-14.392-5.109-21.32c-3.74-12.13-8.79-23.68-14.98-34.5c-16.51-28.859-41.14-52.47-70.779-67.72v-0.01
		c0-0.11-0.011-0.23-0.011-0.34v-0.01c29.641-15.26,54.29-38.87,70.801-67.74c6.189-10.82,11.239-22.37,14.979-34.5
		c2.86-9.25,4.96-18.83,6.22-28.67c13.32-4.43,27.57-6.82,42.38-6.82c27.391,0,52.87,8.19,74.12,22.27
		c10.79,7.15,20.49,15.81,28.79,25.69c8.67,10.3,15.82,21.92,21.101,34.52C718.023,360.322,721.723,377.862,721.723,396.271z"/>
	<path fill="#FFFFFF" d="M508.763,246.552c0,10.93-1.3,21.55-3.77,31.72c-1.29,5.35-2.9,10.58-4.82,15.66
		c-2.649,7.06-5.89,13.83-9.64,20.26c-7.68,13.16-17.521,24.89-29.05,34.71c-13.011,11.09-28.171,19.74-44.761,25.25
		c-13.319,4.42-27.569,6.82-42.38,6.82c-10.96,0-21.62-1.31-31.819-3.79c-15.391-3.74-29.73-10.12-42.54-18.64h-0.011
		c-25.06-16.68-44.2-41.53-53.61-70.76c-4.18-12.99-6.44-26.85-6.44-41.23c0-1.61,0.03-3.22,0.09-4.81
		c2.53-72,61.71-129.6,134.33-129.6c17.141,0,33.53,3.21,48.601,9.05c12.199,4.74,23.54,11.2,33.72,19.1
		c30.89,23.96,51.05,61.08,52.06,102.95C508.753,244.342,508.763,245.442,508.763,246.552z"/>
</g>
<polygon fill="#FFFFFF" points="1053.633,399.771 750.663,681.492 750.663,118.021 "/>
</svg>
